<mxfile host="app.diagrams.net" agent="Mozilla/5.0 (Windows NT 10.0; Win64; x64) AppleWebKit/537.36 (KHTML, like Gecko) Chrome/135.0.0.0 Safari/537.36 Edg/135.0.0.0" version="26.2.14">
  <diagram name="Page-1" id="sAtCMrdi-N-IGAuQm6Ov">
    <mxGraphModel dx="2298" dy="1373" grid="0" gridSize="10" guides="1" tooltips="1" connect="1" arrows="1" fold="1" page="1" pageScale="1" pageWidth="1900" pageHeight="600" math="0" shadow="0">
      <root>
        <mxCell id="0" />
        <mxCell id="1" parent="0" />
        <mxCell id="HUTEtO8FgiCn7cgwGOjO-1" style="edgeStyle=none;curved=1;rounded=0;orthogonalLoop=1;jettySize=auto;html=1;exitX=1;exitY=0.5;exitDx=0;exitDy=0;entryX=0;entryY=0.5;entryDx=0;entryDy=0;fontSize=12;startSize=8;endSize=8;" parent="1" source="HUTEtO8FgiCn7cgwGOjO-2" target="HUTEtO8FgiCn7cgwGOjO-7" edge="1">
          <mxGeometry relative="1" as="geometry" />
        </mxCell>
        <mxCell id="HUTEtO8FgiCn7cgwGOjO-2" value="" style="rounded=1;whiteSpace=wrap;html=1;fillColor=#cce5ff;strokeColor=#36393d;" parent="1" vertex="1">
          <mxGeometry x="76" y="193.13" width="132" height="99" as="geometry" />
        </mxCell>
        <mxCell id="HUTEtO8FgiCn7cgwGOjO-3" value="" style="outlineConnect=0;dashed=0;verticalLabelPosition=bottom;verticalAlign=top;align=center;html=1;shape=mxgraph.aws3.actuator;fillColor=#1ba1e2;fontColor=#ffffff;strokeColor=#006EAF;" parent="1" vertex="1">
          <mxGeometry x="108.5" y="204.13" width="66.5" height="77" as="geometry" />
        </mxCell>
        <mxCell id="HUTEtO8FgiCn7cgwGOjO-4" value="&lt;font&gt;&lt;span&gt;IoT Network Traffic&lt;/span&gt;&lt;/font&gt;&lt;div&gt;&lt;font&gt;&lt;span&gt;(attack+benign)&lt;/span&gt;&lt;/font&gt;&lt;/div&gt;" style="text;html=1;align=center;verticalAlign=middle;whiteSpace=wrap;rounded=0;fontSize=23;fontStyle=1" parent="1" vertex="1">
          <mxGeometry x="88.5" y="311.13" width="106.5" height="44" as="geometry" />
        </mxCell>
        <mxCell id="HUTEtO8FgiCn7cgwGOjO-5" style="edgeStyle=none;curved=1;rounded=0;orthogonalLoop=1;jettySize=auto;html=1;exitX=1;exitY=0.5;exitDx=0;exitDy=0;entryX=0;entryY=0.5;entryDx=0;entryDy=0;fontSize=12;startSize=8;endSize=8;" parent="1" source="HUTEtO8FgiCn7cgwGOjO-7" target="HUTEtO8FgiCn7cgwGOjO-11" edge="1">
          <mxGeometry relative="1" as="geometry" />
        </mxCell>
        <mxCell id="HUTEtO8FgiCn7cgwGOjO-6" style="edgeStyle=none;curved=1;rounded=0;orthogonalLoop=1;jettySize=auto;html=1;exitX=1;exitY=0.5;exitDx=0;exitDy=0;fontSize=12;startSize=8;endSize=8;" parent="1" source="HUTEtO8FgiCn7cgwGOjO-7" edge="1">
          <mxGeometry relative="1" as="geometry">
            <mxPoint x="472" y="358.13" as="targetPoint" />
          </mxGeometry>
        </mxCell>
        <mxCell id="HUTEtO8FgiCn7cgwGOjO-7" value="" style="rounded=1;whiteSpace=wrap;html=1;fillColor=#cce5ff;strokeColor=#36393d;" parent="1" vertex="1">
          <mxGeometry x="285" y="193.13" width="132" height="99" as="geometry" />
        </mxCell>
        <mxCell id="HUTEtO8FgiCn7cgwGOjO-8" value="" style="aspect=fixed;pointerEvents=1;shadow=0;dashed=0;html=1;strokeColor=#006EAF;labelPosition=center;verticalLabelPosition=bottom;verticalAlign=top;align=center;fillColor=#1ba1e2;shape=mxgraph.mscae.enterprise.filter;fontColor=#ffffff;" parent="1" vertex="1">
          <mxGeometry x="316.8299999999999" y="211.5" width="69.17" height="62.25" as="geometry" />
        </mxCell>
        <mxCell id="HUTEtO8FgiCn7cgwGOjO-9" value="&lt;font&gt;&lt;span&gt;Filtering module&lt;/span&gt;&lt;/font&gt;" style="text;html=1;align=center;verticalAlign=middle;whiteSpace=wrap;rounded=0;fontSize=23;fontStyle=1" parent="1" vertex="1">
          <mxGeometry x="321.4100000000001" y="317.13" width="60" height="30" as="geometry" />
        </mxCell>
        <mxCell id="HUTEtO8FgiCn7cgwGOjO-10" style="edgeStyle=none;curved=1;rounded=0;orthogonalLoop=1;jettySize=auto;html=1;exitX=1;exitY=0.5;exitDx=0;exitDy=0;entryX=0;entryY=0.5;entryDx=0;entryDy=0;fontSize=12;startSize=8;endSize=8;" parent="1" source="HUTEtO8FgiCn7cgwGOjO-11" target="HUTEtO8FgiCn7cgwGOjO-85" edge="1">
          <mxGeometry relative="1" as="geometry" />
        </mxCell>
        <mxCell id="HUTEtO8FgiCn7cgwGOjO-11" value="" style="rounded=1;whiteSpace=wrap;html=1;fillColor=#cce5ff;strokeColor=#36393d;" parent="1" vertex="1">
          <mxGeometry x="472" y="95.82999999999998" width="125" height="99" as="geometry" />
        </mxCell>
        <mxCell id="HUTEtO8FgiCn7cgwGOjO-12" value="" style="edgeStyle=none;curved=1;rounded=0;orthogonalLoop=1;jettySize=auto;html=1;fontSize=12;startSize=8;endSize=8;" parent="1" target="HUTEtO8FgiCn7cgwGOjO-14" edge="1">
          <mxGeometry relative="1" as="geometry">
            <mxPoint x="1420.5" y="154" as="sourcePoint" />
          </mxGeometry>
        </mxCell>
        <mxCell id="HUTEtO8FgiCn7cgwGOjO-13" value="" style="edgeStyle=none;curved=1;rounded=0;orthogonalLoop=1;jettySize=auto;html=1;fontSize=12;startSize=8;endSize=8;" parent="1" source="HUTEtO8FgiCn7cgwGOjO-14" target="HUTEtO8FgiCn7cgwGOjO-99" edge="1">
          <mxGeometry relative="1" as="geometry" />
        </mxCell>
        <mxCell id="HUTEtO8FgiCn7cgwGOjO-14" value="" style="rounded=1;whiteSpace=wrap;html=1;fillColor=#cce5ff;strokeColor=#36393d;" parent="1" vertex="1">
          <mxGeometry x="1444.5" y="95.82999999999998" width="165" height="110" as="geometry" />
        </mxCell>
        <mxCell id="HUTEtO8FgiCn7cgwGOjO-15" value="" style="edgeStyle=none;curved=1;rounded=0;orthogonalLoop=1;jettySize=auto;html=1;fontSize=12;startSize=8;endSize=8;" parent="1" source="HUTEtO8FgiCn7cgwGOjO-17" target="HUTEtO8FgiCn7cgwGOjO-18" edge="1">
          <mxGeometry relative="1" as="geometry" />
        </mxCell>
        <mxCell id="HUTEtO8FgiCn7cgwGOjO-16" style="edgeStyle=none;curved=1;rounded=0;orthogonalLoop=1;jettySize=auto;html=1;entryX=0;entryY=0;entryDx=0;entryDy=0;fontSize=12;startSize=8;endSize=8;" parent="1" source="HUTEtO8FgiCn7cgwGOjO-17" target="HUTEtO8FgiCn7cgwGOjO-23" edge="1">
          <mxGeometry relative="1" as="geometry">
            <Array as="points">
              <mxPoint x="1521.5" y="172.83000000000004" />
            </Array>
          </mxGeometry>
        </mxCell>
        <mxCell id="HUTEtO8FgiCn7cgwGOjO-17" value="" style="ellipse;whiteSpace=wrap;html=1;aspect=fixed;fillColor=#1ba1e2;strokeColor=#006EAF;fontColor=#ffffff;" parent="1" vertex="1">
          <mxGeometry x="1477.5" y="111.83000000000001" width="28" height="28" as="geometry" />
        </mxCell>
        <mxCell id="HUTEtO8FgiCn7cgwGOjO-18" value="" style="ellipse;whiteSpace=wrap;html=1;aspect=fixed;fillColor=#1ba1e2;strokeColor=#006EAF;fontColor=#ffffff;" parent="1" vertex="1">
          <mxGeometry x="1576.5" y="150.83000000000004" width="22" height="22" as="geometry" />
        </mxCell>
        <mxCell id="HUTEtO8FgiCn7cgwGOjO-19" style="edgeStyle=none;curved=1;rounded=0;orthogonalLoop=1;jettySize=auto;html=1;entryX=0;entryY=1;entryDx=0;entryDy=0;fontSize=12;startSize=8;endSize=8;" parent="1" source="HUTEtO8FgiCn7cgwGOjO-21" target="HUTEtO8FgiCn7cgwGOjO-24" edge="1">
          <mxGeometry relative="1" as="geometry" />
        </mxCell>
        <mxCell id="HUTEtO8FgiCn7cgwGOjO-20" style="edgeStyle=none;curved=1;rounded=0;orthogonalLoop=1;jettySize=auto;html=1;entryX=0;entryY=0.5;entryDx=0;entryDy=0;fontSize=12;startSize=8;endSize=8;" parent="1" source="HUTEtO8FgiCn7cgwGOjO-21" target="HUTEtO8FgiCn7cgwGOjO-23" edge="1">
          <mxGeometry relative="1" as="geometry" />
        </mxCell>
        <mxCell id="HUTEtO8FgiCn7cgwGOjO-21" value="" style="ellipse;whiteSpace=wrap;html=1;aspect=fixed;fillColor=#1ba1e2;strokeColor=#006EAF;fontColor=#ffffff;" parent="1" vertex="1">
          <mxGeometry x="1455.5" y="172.83000000000004" width="28" height="28" as="geometry" />
        </mxCell>
        <mxCell id="HUTEtO8FgiCn7cgwGOjO-22" style="edgeStyle=none;curved=1;rounded=0;orthogonalLoop=1;jettySize=auto;html=1;entryX=0.5;entryY=1;entryDx=0;entryDy=0;fontSize=12;startSize=8;endSize=8;" parent="1" source="HUTEtO8FgiCn7cgwGOjO-23" target="HUTEtO8FgiCn7cgwGOjO-24" edge="1">
          <mxGeometry relative="1" as="geometry" />
        </mxCell>
        <mxCell id="HUTEtO8FgiCn7cgwGOjO-23" value="" style="ellipse;whiteSpace=wrap;html=1;aspect=fixed;fillColor=#1ba1e2;strokeColor=#006EAF;fontColor=#ffffff;" parent="1" vertex="1">
          <mxGeometry x="1532.5" y="183.83000000000004" width="22" height="22" as="geometry" />
        </mxCell>
        <mxCell id="HUTEtO8FgiCn7cgwGOjO-24" value="" style="ellipse;whiteSpace=wrap;html=1;aspect=fixed;fillColor=#1ba1e2;strokeColor=#006EAF;fontColor=#ffffff;" parent="1" vertex="1">
          <mxGeometry x="1554.5" y="95.82999999999998" width="28" height="28" as="geometry" />
        </mxCell>
        <mxCell id="HUTEtO8FgiCn7cgwGOjO-25" style="edgeStyle=none;curved=1;rounded=0;orthogonalLoop=1;jettySize=auto;html=1;exitX=1;exitY=1;exitDx=0;exitDy=0;fontSize=12;startSize=8;endSize=8;" parent="1" source="HUTEtO8FgiCn7cgwGOjO-14" target="HUTEtO8FgiCn7cgwGOjO-14" edge="1">
          <mxGeometry relative="1" as="geometry" />
        </mxCell>
        <mxCell id="HUTEtO8FgiCn7cgwGOjO-26" value="&lt;font style=&quot;font-size: 23px;&quot;&gt;&lt;b style=&quot;&quot;&gt;Graph Generating Module&lt;/b&gt;&lt;/font&gt;" style="text;html=1;align=center;verticalAlign=middle;whiteSpace=wrap;rounded=0;" parent="1" vertex="1">
          <mxGeometry x="1470.5" y="228.7" width="115" height="42.5" as="geometry" />
        </mxCell>
        <mxCell id="8RnMBRZzP_LefB40drwE-40" style="edgeStyle=orthogonalEdgeStyle;rounded=0;orthogonalLoop=1;jettySize=auto;html=1;entryX=0;entryY=0.5;entryDx=0;entryDy=0;" parent="1" source="HUTEtO8FgiCn7cgwGOjO-28" target="8RnMBRZzP_LefB40drwE-27" edge="1">
          <mxGeometry relative="1" as="geometry" />
        </mxCell>
        <mxCell id="HUTEtO8FgiCn7cgwGOjO-28" value="" style="rounded=1;whiteSpace=wrap;html=1;fillColor=#cce5ff;strokeColor=#36393d;" parent="1" vertex="1">
          <mxGeometry x="655" y="330.63" width="187" height="88" as="geometry" />
        </mxCell>
        <mxCell id="HUTEtO8FgiCn7cgwGOjO-29" value="" style="edgeStyle=none;curved=1;rounded=0;orthogonalLoop=1;jettySize=auto;html=1;fontSize=12;startSize=8;endSize=8;" parent="1" source="HUTEtO8FgiCn7cgwGOjO-30" target="HUTEtO8FgiCn7cgwGOjO-31" edge="1">
          <mxGeometry relative="1" as="geometry" />
        </mxCell>
        <mxCell id="HUTEtO8FgiCn7cgwGOjO-30" value="" style="rounded=1;whiteSpace=wrap;html=1;" parent="1" vertex="1">
          <mxGeometry x="1236.5" y="329.13" width="143" height="88" as="geometry" />
        </mxCell>
        <mxCell id="HUTEtO8FgiCn7cgwGOjO-31" value="" style="rounded=1;whiteSpace=wrap;html=1;" parent="1" vertex="1">
          <mxGeometry x="1444.5" y="327.34" width="154" height="99" as="geometry" />
        </mxCell>
        <mxCell id="HUTEtO8FgiCn7cgwGOjO-32" value="" style="edgeStyle=none;curved=1;rounded=0;orthogonalLoop=1;jettySize=auto;html=1;fontSize=12;startSize=8;endSize=8;" parent="1" source="HUTEtO8FgiCn7cgwGOjO-33" target="HUTEtO8FgiCn7cgwGOjO-100" edge="1">
          <mxGeometry relative="1" as="geometry" />
        </mxCell>
        <mxCell id="HUTEtO8FgiCn7cgwGOjO-33" value="" style="rounded=1;whiteSpace=wrap;html=1;fillColor=#cce5ff;strokeColor=#36393d;" parent="1" vertex="1">
          <mxGeometry x="1444.5" y="321.12999999999994" width="165" height="110" as="geometry" />
        </mxCell>
        <mxCell id="HUTEtO8FgiCn7cgwGOjO-34" value="" style="edgeStyle=none;curved=1;rounded=0;orthogonalLoop=1;jettySize=auto;html=1;fontSize=12;startSize=8;endSize=8;" parent="1" source="HUTEtO8FgiCn7cgwGOjO-36" target="HUTEtO8FgiCn7cgwGOjO-37" edge="1">
          <mxGeometry relative="1" as="geometry" />
        </mxCell>
        <mxCell id="HUTEtO8FgiCn7cgwGOjO-35" style="edgeStyle=none;curved=1;rounded=0;orthogonalLoop=1;jettySize=auto;html=1;entryX=0;entryY=0;entryDx=0;entryDy=0;fontSize=12;startSize=8;endSize=8;" parent="1" source="HUTEtO8FgiCn7cgwGOjO-36" target="HUTEtO8FgiCn7cgwGOjO-42" edge="1">
          <mxGeometry relative="1" as="geometry">
            <Array as="points">
              <mxPoint x="1521.5" y="398.13" />
            </Array>
          </mxGeometry>
        </mxCell>
        <mxCell id="HUTEtO8FgiCn7cgwGOjO-36" value="" style="ellipse;whiteSpace=wrap;html=1;aspect=fixed;fillColor=#e1d5e7;strokeColor=#9673a6;" parent="1" vertex="1">
          <mxGeometry x="1477.5" y="337.12999999999994" width="28" height="28" as="geometry" />
        </mxCell>
        <mxCell id="HUTEtO8FgiCn7cgwGOjO-37" value="" style="ellipse;whiteSpace=wrap;html=1;aspect=fixed;fillColor=#e1d5e7;strokeColor=#9673a6;" parent="1" vertex="1">
          <mxGeometry x="1576.5" y="376.12999999999994" width="22" height="22" as="geometry" />
        </mxCell>
        <mxCell id="HUTEtO8FgiCn7cgwGOjO-38" style="edgeStyle=none;curved=1;rounded=0;orthogonalLoop=1;jettySize=auto;html=1;entryX=0;entryY=1;entryDx=0;entryDy=0;fontSize=12;startSize=8;endSize=8;" parent="1" source="HUTEtO8FgiCn7cgwGOjO-40" target="HUTEtO8FgiCn7cgwGOjO-43" edge="1">
          <mxGeometry relative="1" as="geometry" />
        </mxCell>
        <mxCell id="HUTEtO8FgiCn7cgwGOjO-39" style="edgeStyle=none;curved=1;rounded=0;orthogonalLoop=1;jettySize=auto;html=1;entryX=0;entryY=0.5;entryDx=0;entryDy=0;fontSize=12;startSize=8;endSize=8;" parent="1" source="HUTEtO8FgiCn7cgwGOjO-40" target="HUTEtO8FgiCn7cgwGOjO-42" edge="1">
          <mxGeometry relative="1" as="geometry" />
        </mxCell>
        <mxCell id="HUTEtO8FgiCn7cgwGOjO-40" value="" style="ellipse;whiteSpace=wrap;html=1;aspect=fixed;fillColor=#e1d5e7;strokeColor=#9673a6;" parent="1" vertex="1">
          <mxGeometry x="1455.5" y="398.13" width="28" height="28" as="geometry" />
        </mxCell>
        <mxCell id="HUTEtO8FgiCn7cgwGOjO-41" style="edgeStyle=none;curved=1;rounded=0;orthogonalLoop=1;jettySize=auto;html=1;entryX=0.5;entryY=1;entryDx=0;entryDy=0;fontSize=12;startSize=8;endSize=8;" parent="1" source="HUTEtO8FgiCn7cgwGOjO-42" target="HUTEtO8FgiCn7cgwGOjO-43" edge="1">
          <mxGeometry relative="1" as="geometry" />
        </mxCell>
        <mxCell id="HUTEtO8FgiCn7cgwGOjO-42" value="" style="ellipse;whiteSpace=wrap;html=1;aspect=fixed;fillColor=#e1d5e7;strokeColor=#9673a6;" parent="1" vertex="1">
          <mxGeometry x="1532.5" y="409.13" width="22" height="22" as="geometry" />
        </mxCell>
        <mxCell id="HUTEtO8FgiCn7cgwGOjO-43" value="" style="ellipse;whiteSpace=wrap;html=1;aspect=fixed;fillColor=#e1d5e7;strokeColor=#9673a6;" parent="1" vertex="1">
          <mxGeometry x="1554.5" y="321.12999999999994" width="28" height="28" as="geometry" />
        </mxCell>
        <mxCell id="HUTEtO8FgiCn7cgwGOjO-44" style="edgeStyle=none;curved=1;rounded=0;orthogonalLoop=1;jettySize=auto;html=1;exitX=1;exitY=1;exitDx=0;exitDy=0;fontSize=12;startSize=8;endSize=8;" parent="1" source="HUTEtO8FgiCn7cgwGOjO-33" target="HUTEtO8FgiCn7cgwGOjO-33" edge="1">
          <mxGeometry relative="1" as="geometry" />
        </mxCell>
        <mxCell id="HUTEtO8FgiCn7cgwGOjO-45" value="&lt;font style=&quot;font-size: 23px;&quot;&gt;&lt;b style=&quot;&quot;&gt;Graph Generating Module&lt;/b&gt;&lt;/font&gt;" style="text;html=1;align=center;verticalAlign=middle;whiteSpace=wrap;rounded=0;" parent="1" vertex="1">
          <mxGeometry x="1478.5" y="472.1600000000001" width="99" height="22" as="geometry" />
        </mxCell>
        <mxCell id="HUTEtO8FgiCn7cgwGOjO-46" value="" style="shape=flexArrow;endArrow=classic;html=1;rounded=0;fontSize=12;startSize=8;endSize=8;curved=1;fillColor=#1ba1e2;strokeColor=#006EAF;" parent="1" edge="1">
          <mxGeometry width="50" height="50" relative="1" as="geometry">
            <mxPoint x="493" y="129" as="sourcePoint" />
            <mxPoint x="587" y="129" as="targetPoint" />
          </mxGeometry>
        </mxCell>
        <mxCell id="HUTEtO8FgiCn7cgwGOjO-47" value="" style="shape=flexArrow;endArrow=classic;html=1;rounded=0;fontSize=12;startSize=8;endSize=8;curved=1;endWidth=23.076923076923077;fillColor=#1ba1e2;strokeColor=#006EAF;" parent="1" edge="1">
          <mxGeometry width="50" height="50" relative="1" as="geometry">
            <mxPoint x="580" y="168.98000000000002" as="sourcePoint" />
            <mxPoint x="493" y="168.98000000000002" as="targetPoint" />
          </mxGeometry>
        </mxCell>
        <mxCell id="HUTEtO8FgiCn7cgwGOjO-48" value="" style="edgeStyle=none;curved=1;rounded=0;orthogonalLoop=1;jettySize=auto;html=1;fontSize=12;startSize=8;endSize=8;" parent="1" source="HUTEtO8FgiCn7cgwGOjO-49" target="HUTEtO8FgiCn7cgwGOjO-28" edge="1">
          <mxGeometry relative="1" as="geometry" />
        </mxCell>
        <mxCell id="HUTEtO8FgiCn7cgwGOjO-49" value="" style="rounded=1;whiteSpace=wrap;html=1;fillColor=#cce5ff;strokeColor=#36393d;" parent="1" vertex="1">
          <mxGeometry x="472" y="317.13" width="136" height="99" as="geometry" />
        </mxCell>
        <mxCell id="HUTEtO8FgiCn7cgwGOjO-50" value="" style="shape=flexArrow;endArrow=classic;html=1;rounded=0;fontSize=12;startSize=8;endSize=8;curved=1;fillColor=#e1d5e7;strokeColor=#9673a6;" parent="1" edge="1">
          <mxGeometry width="50" height="50" relative="1" as="geometry">
            <mxPoint x="493" y="345.13" as="sourcePoint" />
            <mxPoint x="587" y="345.13" as="targetPoint" />
          </mxGeometry>
        </mxCell>
        <mxCell id="HUTEtO8FgiCn7cgwGOjO-51" value="" style="shape=flexArrow;endArrow=classic;html=1;rounded=0;fontSize=12;startSize=8;endSize=8;curved=1;endWidth=27.142857142857146;fillColor=#e1d5e7;strokeColor=#9673a6;" parent="1" edge="1">
          <mxGeometry width="50" height="50" relative="1" as="geometry">
            <mxPoint x="581" y="389.13" as="sourcePoint" />
            <mxPoint x="494" y="389.13" as="targetPoint" />
          </mxGeometry>
        </mxCell>
        <mxCell id="HUTEtO8FgiCn7cgwGOjO-52" value="&lt;font style=&quot;font-size: 23px;&quot;&gt;&lt;b style=&quot;&quot;&gt;Flow Reconstruction&lt;/b&gt;&lt;/font&gt;&lt;div&gt;&lt;font style=&quot;font-size: 23px;&quot;&gt;&lt;b style=&quot;&quot;&gt;Module&lt;/b&gt;&lt;/font&gt;&lt;/div&gt;" style="text;html=1;align=center;verticalAlign=middle;whiteSpace=wrap;rounded=0;" parent="1" vertex="1">
          <mxGeometry x="469" y="224.13" width="137" height="44" as="geometry" />
        </mxCell>
        <mxCell id="HUTEtO8FgiCn7cgwGOjO-53" value="" style="rounded=1;whiteSpace=wrap;html=1;fillColor=#cce5ff;strokeColor=#36393d;" parent="1" vertex="1">
          <mxGeometry x="1236.5" y="321.13" width="143" height="110" as="geometry" />
        </mxCell>
        <mxCell id="HUTEtO8FgiCn7cgwGOjO-54" value="" style="shape=table;startSize=0;container=1;collapsible=0;childLayout=tableLayout;fontSize=16;fillColor=#e1d5e7;strokeColor=#9673a6;" parent="1" vertex="1">
          <mxGeometry x="1269.5" y="326.63" width="70" height="66" as="geometry" />
        </mxCell>
        <mxCell id="HUTEtO8FgiCn7cgwGOjO-55" value="" style="shape=tableRow;horizontal=0;startSize=0;swimlaneHead=0;swimlaneBody=0;strokeColor=inherit;top=0;left=0;bottom=0;right=0;collapsible=0;dropTarget=0;fillColor=none;points=[[0,0.5],[1,0.5]];portConstraint=eastwest;fontSize=16;" parent="HUTEtO8FgiCn7cgwGOjO-54" vertex="1">
          <mxGeometry width="70" height="21" as="geometry" />
        </mxCell>
        <mxCell id="HUTEtO8FgiCn7cgwGOjO-56" value="" style="shape=partialRectangle;html=1;whiteSpace=wrap;connectable=0;strokeColor=#9673a6;overflow=hidden;fillColor=#e1d5e7;top=0;left=0;bottom=0;right=0;pointerEvents=1;fontSize=16;" parent="HUTEtO8FgiCn7cgwGOjO-55" vertex="1">
          <mxGeometry width="23" height="21" as="geometry">
            <mxRectangle width="23" height="21" as="alternateBounds" />
          </mxGeometry>
        </mxCell>
        <mxCell id="HUTEtO8FgiCn7cgwGOjO-57" value="" style="shape=partialRectangle;html=1;whiteSpace=wrap;connectable=0;strokeColor=#9673a6;overflow=hidden;fillColor=#e1d5e7;top=0;left=0;bottom=0;right=0;pointerEvents=1;fontSize=16;" parent="HUTEtO8FgiCn7cgwGOjO-55" vertex="1">
          <mxGeometry x="23" width="24" height="21" as="geometry">
            <mxRectangle width="24" height="21" as="alternateBounds" />
          </mxGeometry>
        </mxCell>
        <mxCell id="HUTEtO8FgiCn7cgwGOjO-58" value="" style="shape=partialRectangle;html=1;whiteSpace=wrap;connectable=0;strokeColor=#9673a6;overflow=hidden;fillColor=#e1d5e7;top=0;left=0;bottom=0;right=0;pointerEvents=1;fontSize=16;" parent="HUTEtO8FgiCn7cgwGOjO-55" vertex="1">
          <mxGeometry x="47" width="23" height="21" as="geometry">
            <mxRectangle width="23" height="21" as="alternateBounds" />
          </mxGeometry>
        </mxCell>
        <mxCell id="HUTEtO8FgiCn7cgwGOjO-59" value="" style="shape=tableRow;horizontal=0;startSize=0;swimlaneHead=0;swimlaneBody=0;strokeColor=inherit;top=0;left=0;bottom=0;right=0;collapsible=0;dropTarget=0;fillColor=none;points=[[0,0.5],[1,0.5]];portConstraint=eastwest;fontSize=16;" parent="HUTEtO8FgiCn7cgwGOjO-54" vertex="1">
          <mxGeometry y="21" width="70" height="24" as="geometry" />
        </mxCell>
        <mxCell id="HUTEtO8FgiCn7cgwGOjO-60" value="" style="shape=partialRectangle;html=1;whiteSpace=wrap;connectable=0;strokeColor=#9673a6;overflow=hidden;fillColor=#e1d5e7;top=0;left=0;bottom=0;right=0;pointerEvents=1;fontSize=16;" parent="HUTEtO8FgiCn7cgwGOjO-59" vertex="1">
          <mxGeometry width="23" height="24" as="geometry">
            <mxRectangle width="23" height="24" as="alternateBounds" />
          </mxGeometry>
        </mxCell>
        <mxCell id="HUTEtO8FgiCn7cgwGOjO-61" value="" style="shape=partialRectangle;html=1;whiteSpace=wrap;connectable=0;strokeColor=#9673a6;overflow=hidden;fillColor=#e1d5e7;top=0;left=0;bottom=0;right=0;pointerEvents=1;fontSize=16;" parent="HUTEtO8FgiCn7cgwGOjO-59" vertex="1">
          <mxGeometry x="23" width="24" height="24" as="geometry">
            <mxRectangle width="24" height="24" as="alternateBounds" />
          </mxGeometry>
        </mxCell>
        <mxCell id="HUTEtO8FgiCn7cgwGOjO-62" value="" style="shape=partialRectangle;html=1;whiteSpace=wrap;connectable=0;strokeColor=#9673a6;overflow=hidden;fillColor=#e1d5e7;top=0;left=0;bottom=0;right=0;pointerEvents=1;fontSize=16;" parent="HUTEtO8FgiCn7cgwGOjO-59" vertex="1">
          <mxGeometry x="47" width="23" height="24" as="geometry">
            <mxRectangle width="23" height="24" as="alternateBounds" />
          </mxGeometry>
        </mxCell>
        <mxCell id="HUTEtO8FgiCn7cgwGOjO-63" value="" style="shape=tableRow;horizontal=0;startSize=0;swimlaneHead=0;swimlaneBody=0;strokeColor=inherit;top=0;left=0;bottom=0;right=0;collapsible=0;dropTarget=0;fillColor=none;points=[[0,0.5],[1,0.5]];portConstraint=eastwest;fontSize=16;" parent="HUTEtO8FgiCn7cgwGOjO-54" vertex="1">
          <mxGeometry y="45" width="70" height="21" as="geometry" />
        </mxCell>
        <mxCell id="HUTEtO8FgiCn7cgwGOjO-64" value="" style="shape=partialRectangle;html=1;whiteSpace=wrap;connectable=0;strokeColor=#9673a6;overflow=hidden;fillColor=#e1d5e7;top=0;left=0;bottom=0;right=0;pointerEvents=1;fontSize=16;" parent="HUTEtO8FgiCn7cgwGOjO-63" vertex="1">
          <mxGeometry width="23" height="21" as="geometry">
            <mxRectangle width="23" height="21" as="alternateBounds" />
          </mxGeometry>
        </mxCell>
        <mxCell id="HUTEtO8FgiCn7cgwGOjO-65" value="" style="shape=partialRectangle;html=1;whiteSpace=wrap;connectable=0;strokeColor=#9673a6;overflow=hidden;fillColor=#e1d5e7;top=0;left=0;bottom=0;right=0;pointerEvents=1;fontSize=16;" parent="HUTEtO8FgiCn7cgwGOjO-63" vertex="1">
          <mxGeometry x="23" width="24" height="21" as="geometry">
            <mxRectangle width="24" height="21" as="alternateBounds" />
          </mxGeometry>
        </mxCell>
        <mxCell id="HUTEtO8FgiCn7cgwGOjO-66" value="" style="shape=partialRectangle;html=1;whiteSpace=wrap;connectable=0;strokeColor=#9673a6;overflow=hidden;fillColor=#e1d5e7;top=0;left=0;bottom=0;right=0;pointerEvents=1;fontSize=16;" parent="HUTEtO8FgiCn7cgwGOjO-63" vertex="1">
          <mxGeometry x="47" width="23" height="21" as="geometry">
            <mxRectangle width="23" height="21" as="alternateBounds" />
          </mxGeometry>
        </mxCell>
        <mxCell id="HUTEtO8FgiCn7cgwGOjO-67" value="" style="shape=table;startSize=0;container=1;collapsible=0;childLayout=tableLayout;fontSize=16;fillColor=#e1d5e7;strokeColor=#9673a6;" parent="1" vertex="1">
          <mxGeometry x="1269.5" y="403.63" width="70" height="20" as="geometry" />
        </mxCell>
        <mxCell id="HUTEtO8FgiCn7cgwGOjO-68" value="" style="shape=tableRow;horizontal=0;startSize=0;swimlaneHead=0;swimlaneBody=0;strokeColor=inherit;top=0;left=0;bottom=0;right=0;collapsible=0;dropTarget=0;fillColor=none;points=[[0,0.5],[1,0.5]];portConstraint=eastwest;fontSize=16;" parent="HUTEtO8FgiCn7cgwGOjO-67" vertex="1">
          <mxGeometry width="70" height="20" as="geometry" />
        </mxCell>
        <mxCell id="HUTEtO8FgiCn7cgwGOjO-69" value="" style="shape=partialRectangle;html=1;whiteSpace=wrap;connectable=0;strokeColor=#9673a6;overflow=hidden;fillColor=#e1d5e7;top=0;left=0;bottom=0;right=0;pointerEvents=1;fontSize=16;" parent="HUTEtO8FgiCn7cgwGOjO-68" vertex="1">
          <mxGeometry width="23" height="20" as="geometry">
            <mxRectangle width="23" height="20" as="alternateBounds" />
          </mxGeometry>
        </mxCell>
        <mxCell id="HUTEtO8FgiCn7cgwGOjO-70" value="" style="shape=partialRectangle;html=1;whiteSpace=wrap;connectable=0;strokeColor=#9673a6;overflow=hidden;fillColor=#e1d5e7;top=0;left=0;bottom=0;right=0;pointerEvents=1;fontSize=16;" parent="HUTEtO8FgiCn7cgwGOjO-68" vertex="1">
          <mxGeometry x="23" width="24" height="20" as="geometry">
            <mxRectangle width="24" height="20" as="alternateBounds" />
          </mxGeometry>
        </mxCell>
        <mxCell id="HUTEtO8FgiCn7cgwGOjO-71" value="" style="shape=partialRectangle;html=1;whiteSpace=wrap;connectable=0;strokeColor=#9673a6;overflow=hidden;fillColor=#e1d5e7;top=0;left=0;bottom=0;right=0;pointerEvents=1;fontSize=16;" parent="HUTEtO8FgiCn7cgwGOjO-68" vertex="1">
          <mxGeometry x="47" width="23" height="20" as="geometry">
            <mxRectangle width="23" height="20" as="alternateBounds" />
          </mxGeometry>
        </mxCell>
        <mxCell id="HUTEtO8FgiCn7cgwGOjO-72" value="&lt;b&gt;&lt;font style=&quot;font-size: 23px;&quot;&gt;Covdist&lt;/font&gt;&lt;/b&gt;&lt;div&gt;&lt;b&gt;&lt;font style=&quot;font-size: 23px;&quot;&gt;&amp;nbsp;Estimation Module&lt;/font&gt;&lt;/b&gt;&lt;/div&gt;" style="text;html=1;align=center;verticalAlign=middle;whiteSpace=wrap;rounded=0;" parent="1" vertex="1">
          <mxGeometry x="1226" y="459.34000000000003" width="141" height="47.63" as="geometry" />
        </mxCell>
        <mxCell id="HUTEtO8FgiCn7cgwGOjO-73" value="" style="shape=table;startSize=0;container=1;collapsible=0;childLayout=tableLayout;fontSize=16;fillColor=#e1d5e7;strokeColor=#9673a6;" parent="1" vertex="1">
          <mxGeometry x="670" y="363.63" width="77" height="33" as="geometry" />
        </mxCell>
        <mxCell id="HUTEtO8FgiCn7cgwGOjO-74" value="" style="shape=tableRow;horizontal=0;startSize=0;swimlaneHead=0;swimlaneBody=0;strokeColor=inherit;top=0;left=0;bottom=0;right=0;collapsible=0;dropTarget=0;fillColor=none;points=[[0,0.5],[1,0.5]];portConstraint=eastwest;fontSize=16;" parent="HUTEtO8FgiCn7cgwGOjO-73" vertex="1">
          <mxGeometry width="77" height="33" as="geometry" />
        </mxCell>
        <mxCell id="HUTEtO8FgiCn7cgwGOjO-75" value="0" style="shape=partialRectangle;html=1;whiteSpace=wrap;connectable=0;strokeColor=inherit;overflow=hidden;fillColor=none;top=0;left=0;bottom=0;right=0;pointerEvents=1;fontSize=16;" parent="HUTEtO8FgiCn7cgwGOjO-74" vertex="1">
          <mxGeometry width="25" height="33" as="geometry">
            <mxRectangle width="25" height="33" as="alternateBounds" />
          </mxGeometry>
        </mxCell>
        <mxCell id="HUTEtO8FgiCn7cgwGOjO-76" value="1" style="shape=partialRectangle;html=1;whiteSpace=wrap;connectable=0;strokeColor=inherit;overflow=hidden;fillColor=none;top=0;left=0;bottom=0;right=0;pointerEvents=1;fontSize=16;" parent="HUTEtO8FgiCn7cgwGOjO-74" vertex="1">
          <mxGeometry x="25" width="26" height="33" as="geometry">
            <mxRectangle width="26" height="33" as="alternateBounds" />
          </mxGeometry>
        </mxCell>
        <mxCell id="HUTEtO8FgiCn7cgwGOjO-77" value="1" style="shape=partialRectangle;html=1;whiteSpace=wrap;connectable=0;strokeColor=inherit;overflow=hidden;fillColor=none;top=0;left=0;bottom=0;right=0;pointerEvents=1;fontSize=16;" parent="HUTEtO8FgiCn7cgwGOjO-74" vertex="1">
          <mxGeometry x="51" width="26" height="33" as="geometry">
            <mxRectangle width="26" height="33" as="alternateBounds" />
          </mxGeometry>
        </mxCell>
        <mxCell id="HUTEtO8FgiCn7cgwGOjO-78" value="" style="shape=table;startSize=0;container=1;collapsible=0;childLayout=tableLayout;fontSize=16;fillColor=#e1d5e7;strokeColor=#9673a6;" parent="1" vertex="1">
          <mxGeometry x="747" y="363.63" width="88" height="33" as="geometry" />
        </mxCell>
        <mxCell id="HUTEtO8FgiCn7cgwGOjO-79" value="" style="shape=tableRow;horizontal=0;startSize=0;swimlaneHead=0;swimlaneBody=0;strokeColor=inherit;top=0;left=0;bottom=0;right=0;collapsible=0;dropTarget=0;fillColor=none;points=[[0,0.5],[1,0.5]];portConstraint=eastwest;fontSize=16;" parent="HUTEtO8FgiCn7cgwGOjO-78" vertex="1">
          <mxGeometry width="88" height="33" as="geometry" />
        </mxCell>
        <mxCell id="HUTEtO8FgiCn7cgwGOjO-80" value="...." style="shape=partialRectangle;html=1;whiteSpace=wrap;connectable=0;strokeColor=inherit;overflow=hidden;fillColor=none;top=0;left=0;bottom=0;right=0;pointerEvents=1;fontSize=16;" parent="HUTEtO8FgiCn7cgwGOjO-79" vertex="1">
          <mxGeometry width="29" height="33" as="geometry">
            <mxRectangle width="29" height="33" as="alternateBounds" />
          </mxGeometry>
        </mxCell>
        <mxCell id="HUTEtO8FgiCn7cgwGOjO-81" value="0" style="shape=partialRectangle;html=1;whiteSpace=wrap;connectable=0;strokeColor=inherit;overflow=hidden;fillColor=none;top=0;left=0;bottom=0;right=0;pointerEvents=1;fontSize=16;" parent="HUTEtO8FgiCn7cgwGOjO-79" vertex="1">
          <mxGeometry x="29" width="29" height="33" as="geometry">
            <mxRectangle width="29" height="33" as="alternateBounds" />
          </mxGeometry>
        </mxCell>
        <mxCell id="HUTEtO8FgiCn7cgwGOjO-82" value="1" style="shape=partialRectangle;html=1;whiteSpace=wrap;connectable=0;strokeColor=inherit;overflow=hidden;fillColor=none;top=0;left=0;bottom=0;right=0;pointerEvents=1;fontSize=16;" parent="HUTEtO8FgiCn7cgwGOjO-79" vertex="1">
          <mxGeometry x="58" width="30" height="33" as="geometry">
            <mxRectangle width="30" height="33" as="alternateBounds" />
          </mxGeometry>
        </mxCell>
        <mxCell id="HUTEtO8FgiCn7cgwGOjO-83" value="&lt;font style=&quot;font-size: 23px;&quot;&gt;&lt;b style=&quot;&quot;&gt;Bits Extraction&amp;nbsp;&lt;/b&gt;&lt;/font&gt;&lt;div&gt;&lt;font style=&quot;font-size: 23px;&quot;&gt;&lt;b style=&quot;&quot;&gt;Module&lt;/b&gt;&lt;/font&gt;&lt;/div&gt;" style="text;html=1;align=center;verticalAlign=middle;whiteSpace=wrap;rounded=0;" parent="1" vertex="1">
          <mxGeometry x="696.5" y="453.84000000000003" width="104" height="33" as="geometry" />
        </mxCell>
        <mxCell id="HUTEtO8FgiCn7cgwGOjO-84" style="edgeStyle=none;curved=1;rounded=0;orthogonalLoop=1;jettySize=auto;html=1;exitX=1;exitY=0.5;exitDx=0;exitDy=0;fontSize=12;startSize=8;endSize=8;entryX=0;entryY=0.5;entryDx=0;entryDy=0;" parent="1" source="HUTEtO8FgiCn7cgwGOjO-85" target="8RnMBRZzP_LefB40drwE-1" edge="1">
          <mxGeometry relative="1" as="geometry">
            <mxPoint x="886" y="155.13" as="targetPoint" />
          </mxGeometry>
        </mxCell>
        <mxCell id="HUTEtO8FgiCn7cgwGOjO-85" value="" style="rounded=1;whiteSpace=wrap;html=1;fillColor=#cce5ff;strokeColor=#36393d;" parent="1" vertex="1">
          <mxGeometry x="638.5" y="109" width="220" height="77" as="geometry" />
        </mxCell>
        <mxCell id="HUTEtO8FgiCn7cgwGOjO-86" value="" style="shape=table;startSize=0;container=1;collapsible=0;childLayout=tableLayout;fontSize=16;fillColor=#1ba1e2;strokeColor=#006EAF;fontColor=#ffffff;" parent="1" vertex="1">
          <mxGeometry x="660.5" y="131" width="77" height="36.69" as="geometry" />
        </mxCell>
        <mxCell id="HUTEtO8FgiCn7cgwGOjO-87" value="" style="shape=tableRow;horizontal=0;startSize=0;swimlaneHead=0;swimlaneBody=0;strokeColor=inherit;top=0;left=0;bottom=0;right=0;collapsible=0;dropTarget=0;fillColor=none;points=[[0,0.5],[1,0.5]];portConstraint=eastwest;fontSize=16;" parent="HUTEtO8FgiCn7cgwGOjO-86" vertex="1">
          <mxGeometry width="77" height="37" as="geometry" />
        </mxCell>
        <mxCell id="HUTEtO8FgiCn7cgwGOjO-88" value="f1" style="shape=partialRectangle;html=1;whiteSpace=wrap;connectable=0;strokeColor=inherit;overflow=hidden;fillColor=none;top=0;left=0;bottom=0;right=0;pointerEvents=1;fontSize=16;" parent="HUTEtO8FgiCn7cgwGOjO-87" vertex="1">
          <mxGeometry width="25" height="37" as="geometry">
            <mxRectangle width="25" height="37" as="alternateBounds" />
          </mxGeometry>
        </mxCell>
        <mxCell id="HUTEtO8FgiCn7cgwGOjO-89" value="f2" style="shape=partialRectangle;html=1;whiteSpace=wrap;connectable=0;strokeColor=inherit;overflow=hidden;fillColor=none;top=0;left=0;bottom=0;right=0;pointerEvents=1;fontSize=16;" parent="HUTEtO8FgiCn7cgwGOjO-87" vertex="1">
          <mxGeometry x="25" width="27" height="37" as="geometry">
            <mxRectangle width="27" height="37" as="alternateBounds" />
          </mxGeometry>
        </mxCell>
        <mxCell id="HUTEtO8FgiCn7cgwGOjO-90" value="f3" style="shape=partialRectangle;html=1;whiteSpace=wrap;connectable=0;strokeColor=inherit;overflow=hidden;fillColor=none;top=0;left=0;bottom=0;right=0;pointerEvents=1;fontSize=16;" parent="HUTEtO8FgiCn7cgwGOjO-87" vertex="1">
          <mxGeometry x="52" width="25" height="37" as="geometry">
            <mxRectangle width="25" height="37" as="alternateBounds" />
          </mxGeometry>
        </mxCell>
        <mxCell id="HUTEtO8FgiCn7cgwGOjO-91" value="" style="shape=table;startSize=0;container=1;collapsible=0;childLayout=tableLayout;fontSize=16;fillColor=#1ba1e2;strokeColor=#006EAF;fontColor=#ffffff;" parent="1" vertex="1">
          <mxGeometry x="737.5" y="131" width="110" height="36.69" as="geometry" />
        </mxCell>
        <mxCell id="HUTEtO8FgiCn7cgwGOjO-92" value="" style="shape=tableRow;horizontal=0;startSize=0;swimlaneHead=0;swimlaneBody=0;strokeColor=inherit;top=0;left=0;bottom=0;right=0;collapsible=0;dropTarget=0;fillColor=none;points=[[0,0.5],[1,0.5]];portConstraint=eastwest;fontSize=16;" parent="HUTEtO8FgiCn7cgwGOjO-91" vertex="1">
          <mxGeometry width="110" height="37" as="geometry" />
        </mxCell>
        <mxCell id="HUTEtO8FgiCn7cgwGOjO-93" value="...." style="shape=partialRectangle;html=1;whiteSpace=wrap;connectable=0;strokeColor=inherit;overflow=hidden;fillColor=none;top=0;left=0;bottom=0;right=0;pointerEvents=1;fontSize=16;" parent="HUTEtO8FgiCn7cgwGOjO-92" vertex="1">
          <mxGeometry width="36" height="37" as="geometry">
            <mxRectangle width="36" height="37" as="alternateBounds" />
          </mxGeometry>
        </mxCell>
        <mxCell id="HUTEtO8FgiCn7cgwGOjO-94" value="fn-1" style="shape=partialRectangle;html=1;whiteSpace=wrap;connectable=0;strokeColor=inherit;overflow=hidden;fillColor=none;top=0;left=0;bottom=0;right=0;pointerEvents=1;fontSize=16;" parent="HUTEtO8FgiCn7cgwGOjO-92" vertex="1">
          <mxGeometry x="36" width="37" height="37" as="geometry">
            <mxRectangle width="37" height="37" as="alternateBounds" />
          </mxGeometry>
        </mxCell>
        <mxCell id="HUTEtO8FgiCn7cgwGOjO-95" value="fn" style="shape=partialRectangle;html=1;whiteSpace=wrap;connectable=0;strokeColor=inherit;overflow=hidden;fillColor=none;top=0;left=0;bottom=0;right=0;pointerEvents=1;fontSize=16;" parent="HUTEtO8FgiCn7cgwGOjO-92" vertex="1">
          <mxGeometry x="73" width="37" height="37" as="geometry">
            <mxRectangle width="37" height="37" as="alternateBounds" />
          </mxGeometry>
        </mxCell>
        <mxCell id="HUTEtO8FgiCn7cgwGOjO-96" value="&lt;font style=&quot;font-size: 23px;&quot;&gt;&lt;b&gt;Flow Reconstruction&lt;/b&gt;&lt;/font&gt;&lt;div&gt;&lt;font style=&quot;font-size: 23px;&quot;&gt;&lt;b&gt;Module&lt;/b&gt;&lt;/font&gt;&lt;/div&gt;" style="text;html=1;align=center;verticalAlign=middle;whiteSpace=wrap;rounded=0;" parent="1" vertex="1">
          <mxGeometry x="466" y="444.63" width="137" height="44" as="geometry" />
        </mxCell>
        <mxCell id="HUTEtO8FgiCn7cgwGOjO-97" value="&lt;font style=&quot;font-size: 23px;&quot;&gt;&lt;b&gt;Feature Extraction&amp;nbsp;&lt;/b&gt;&lt;/font&gt;&lt;div&gt;&lt;font style=&quot;font-size: 23px;&quot;&gt;&lt;b&gt;Module&lt;/b&gt;&lt;/font&gt;&lt;/div&gt;" style="text;html=1;align=center;verticalAlign=middle;whiteSpace=wrap;rounded=0;" parent="1" vertex="1">
          <mxGeometry x="705" y="224.13" width="104" height="33" as="geometry" />
        </mxCell>
        <mxCell id="HUTEtO8FgiCn7cgwGOjO-98" value="&lt;b&gt;&lt;font style=&quot;font-size: 23px;&quot;&gt;Covdist&lt;/font&gt;&lt;/b&gt;&lt;div&gt;&lt;b&gt;&lt;font style=&quot;font-size: 23px;&quot;&gt;&amp;nbsp;Estimation Module&lt;/font&gt;&lt;/b&gt;&lt;/div&gt;" style="text;html=1;align=center;verticalAlign=middle;whiteSpace=wrap;rounded=0;" parent="1" vertex="1">
          <mxGeometry x="1234" y="226.13" width="141" height="47.63" as="geometry" />
        </mxCell>
        <mxCell id="HUTEtO8FgiCn7cgwGOjO-99" value="&lt;font style=&quot;font-size: 23px;&quot;&gt;&lt;b&gt;Trained EAT Classifier&lt;/b&gt;&lt;/font&gt;" style="text;html=1;align=center;verticalAlign=middle;whiteSpace=wrap;rounded=0;" parent="1" vertex="1">
          <mxGeometry x="1686.5" y="137.35000000000002" width="60" height="30" as="geometry" />
        </mxCell>
        <mxCell id="HUTEtO8FgiCn7cgwGOjO-100" value="&lt;font style=&quot;font-size: 23px;&quot;&gt;&lt;b style=&quot;&quot;&gt;Trained UAT Classifier&lt;/b&gt;&lt;/font&gt;" style="text;html=1;align=center;verticalAlign=middle;whiteSpace=wrap;rounded=0;" parent="1" vertex="1">
          <mxGeometry x="1697.5" y="353.53" width="88" height="50.81" as="geometry" />
        </mxCell>
        <mxCell id="HUTEtO8FgiCn7cgwGOjO-101" value="&lt;b style=&quot;&quot;&gt;&lt;font style=&quot;font-size: 23px;&quot;&gt;Encrypted&lt;/font&gt;&lt;/b&gt;" style="text;html=1;align=center;verticalAlign=middle;whiteSpace=wrap;rounded=0;" parent="1" vertex="1">
          <mxGeometry x="357" y="118" width="60" height="30" as="geometry" />
        </mxCell>
        <mxCell id="HUTEtO8FgiCn7cgwGOjO-102" style="edgeStyle=none;curved=1;rounded=0;orthogonalLoop=1;jettySize=auto;html=1;exitX=0;exitY=0.25;exitDx=0;exitDy=0;fontSize=12;startSize=8;endSize=8;" parent="1" source="HUTEtO8FgiCn7cgwGOjO-101" target="HUTEtO8FgiCn7cgwGOjO-101" edge="1">
          <mxGeometry relative="1" as="geometry" />
        </mxCell>
        <mxCell id="HUTEtO8FgiCn7cgwGOjO-103" value="&lt;b style=&quot;&quot;&gt;&lt;font style=&quot;font-size: 23px;&quot;&gt;Unencrypted&lt;/font&gt;&lt;/b&gt;" style="text;html=1;align=center;verticalAlign=middle;whiteSpace=wrap;rounded=0;" parent="1" vertex="1">
          <mxGeometry x="357" y="391.13" width="60" height="30" as="geometry" />
        </mxCell>
        <mxCell id="HUTEtO8FgiCn7cgwGOjO-104" value="" style="rounded=1;whiteSpace=wrap;html=1;fillColor=#cce5ff;strokeColor=#36393d;" parent="1" vertex="1">
          <mxGeometry x="1210" y="90" width="202" height="115" as="geometry" />
        </mxCell>
        <mxCell id="HUTEtO8FgiCn7cgwGOjO-105" style="edgeStyle=none;curved=1;rounded=0;orthogonalLoop=1;jettySize=auto;html=1;entryX=0;entryY=1;entryDx=0;entryDy=0;fontSize=12;startSize=8;endSize=8;strokeWidth=1;fillColor=#1ba1e2;strokeColor=#006EAF;" parent="1" source="HUTEtO8FgiCn7cgwGOjO-106" target="HUTEtO8FgiCn7cgwGOjO-117" edge="1">
          <mxGeometry relative="1" as="geometry" />
        </mxCell>
        <mxCell id="HUTEtO8FgiCn7cgwGOjO-106" value="" style="ellipse;whiteSpace=wrap;html=1;aspect=fixed;fillColor=#1ba1e2;strokeColor=#006EAF;strokeWidth=1;fontColor=#ffffff;" parent="1" vertex="1">
          <mxGeometry x="1217" y="155" width="17" height="17" as="geometry" />
        </mxCell>
        <mxCell id="HUTEtO8FgiCn7cgwGOjO-107" style="edgeStyle=none;curved=1;rounded=0;orthogonalLoop=1;jettySize=auto;html=1;entryX=0.5;entryY=0;entryDx=0;entryDy=0;fontSize=12;startSize=8;endSize=8;strokeWidth=1;fillColor=#1ba1e2;strokeColor=#006EAF;" parent="1" source="HUTEtO8FgiCn7cgwGOjO-108" target="HUTEtO8FgiCn7cgwGOjO-117" edge="1">
          <mxGeometry relative="1" as="geometry" />
        </mxCell>
        <mxCell id="HUTEtO8FgiCn7cgwGOjO-108" value="" style="ellipse;whiteSpace=wrap;html=1;aspect=fixed;fillColor=#1ba1e2;strokeColor=#006EAF;strokeWidth=1;fontColor=#ffffff;" parent="1" vertex="1">
          <mxGeometry x="1248" y="93" width="19" height="19" as="geometry" />
        </mxCell>
        <mxCell id="HUTEtO8FgiCn7cgwGOjO-109" style="edgeStyle=none;curved=1;rounded=0;orthogonalLoop=1;jettySize=auto;html=1;entryX=0;entryY=0.5;entryDx=0;entryDy=0;fontSize=12;startSize=8;endSize=8;strokeWidth=1;fillColor=#1ba1e2;strokeColor=#006EAF;" parent="1" source="HUTEtO8FgiCn7cgwGOjO-110" target="HUTEtO8FgiCn7cgwGOjO-117" edge="1">
          <mxGeometry relative="1" as="geometry" />
        </mxCell>
        <mxCell id="HUTEtO8FgiCn7cgwGOjO-110" value="" style="ellipse;whiteSpace=wrap;html=1;aspect=fixed;fillColor=#1ba1e2;strokeColor=#006EAF;strokeWidth=1;fontColor=#ffffff;" parent="1" vertex="1">
          <mxGeometry x="1220" y="115" width="17" height="17" as="geometry" />
        </mxCell>
        <mxCell id="HUTEtO8FgiCn7cgwGOjO-111" style="edgeStyle=none;curved=1;rounded=0;orthogonalLoop=1;jettySize=auto;html=1;entryX=0.5;entryY=1;entryDx=0;entryDy=0;fontSize=12;startSize=8;endSize=8;strokeWidth=1;fillColor=#1ba1e2;strokeColor=#006EAF;" parent="1" source="HUTEtO8FgiCn7cgwGOjO-112" target="HUTEtO8FgiCn7cgwGOjO-117" edge="1">
          <mxGeometry relative="1" as="geometry" />
        </mxCell>
        <mxCell id="HUTEtO8FgiCn7cgwGOjO-112" value="" style="ellipse;whiteSpace=wrap;html=1;aspect=fixed;fillColor=#1ba1e2;strokeColor=#006EAF;strokeWidth=1;fontColor=#ffffff;" parent="1" vertex="1">
          <mxGeometry x="1251" y="173" width="17" height="17" as="geometry" />
        </mxCell>
        <mxCell id="HUTEtO8FgiCn7cgwGOjO-113" style="edgeStyle=none;curved=1;rounded=0;orthogonalLoop=1;jettySize=auto;html=1;entryX=1;entryY=1;entryDx=0;entryDy=0;fontSize=12;startSize=8;endSize=8;strokeWidth=1;fillColor=#1ba1e2;strokeColor=#006EAF;" parent="1" source="HUTEtO8FgiCn7cgwGOjO-114" target="HUTEtO8FgiCn7cgwGOjO-117" edge="1">
          <mxGeometry relative="1" as="geometry" />
        </mxCell>
        <mxCell id="HUTEtO8FgiCn7cgwGOjO-114" value="" style="ellipse;whiteSpace=wrap;html=1;aspect=fixed;fillColor=#1ba1e2;strokeColor=#006EAF;strokeWidth=1;fontColor=#ffffff;" parent="1" vertex="1">
          <mxGeometry x="1277" y="146" width="17" height="17" as="geometry" />
        </mxCell>
        <mxCell id="HUTEtO8FgiCn7cgwGOjO-115" style="edgeStyle=none;curved=1;rounded=0;orthogonalLoop=1;jettySize=auto;html=1;entryX=1;entryY=0;entryDx=0;entryDy=0;fontSize=12;startSize=8;endSize=8;strokeWidth=1;fillColor=#1ba1e2;strokeColor=#006EAF;" parent="1" source="HUTEtO8FgiCn7cgwGOjO-116" target="HUTEtO8FgiCn7cgwGOjO-117" edge="1">
          <mxGeometry relative="1" as="geometry" />
        </mxCell>
        <mxCell id="HUTEtO8FgiCn7cgwGOjO-116" value="" style="ellipse;whiteSpace=wrap;html=1;aspect=fixed;fillColor=#1ba1e2;strokeColor=#006EAF;strokeWidth=1;fontColor=#ffffff;" parent="1" vertex="1">
          <mxGeometry x="1280" y="109.00000000000003" width="17" height="17" as="geometry" />
        </mxCell>
        <mxCell id="HUTEtO8FgiCn7cgwGOjO-117" value="" style="ellipse;whiteSpace=wrap;html=1;aspect=fixed;fillColor=#1ba1e2;strokeColor=#006EAF;strokeWidth=1;fontColor=#ffffff;" parent="1" vertex="1">
          <mxGeometry x="1244" y="128" width="25" height="25" as="geometry" />
        </mxCell>
        <mxCell id="HUTEtO8FgiCn7cgwGOjO-118" style="edgeStyle=none;curved=1;rounded=0;orthogonalLoop=1;jettySize=auto;html=1;entryX=0;entryY=1;entryDx=0;entryDy=0;fontSize=12;startSize=8;endSize=8;strokeWidth=1;fillColor=#1ba1e2;strokeColor=#006EAF;" parent="1" source="HUTEtO8FgiCn7cgwGOjO-119" target="HUTEtO8FgiCn7cgwGOjO-129" edge="1">
          <mxGeometry relative="1" as="geometry" />
        </mxCell>
        <mxCell id="HUTEtO8FgiCn7cgwGOjO-119" value="" style="ellipse;whiteSpace=wrap;html=1;aspect=fixed;fillColor=#1ba1e2;strokeColor=#006EAF;strokeWidth=1;fontColor=#ffffff;" parent="1" vertex="1">
          <mxGeometry x="1321" y="171" width="17" height="17" as="geometry" />
        </mxCell>
        <mxCell id="HUTEtO8FgiCn7cgwGOjO-120" value="" style="ellipse;whiteSpace=wrap;html=1;aspect=fixed;fillColor=#1ba1e2;strokeColor=#006EAF;strokeWidth=1;fontColor=#ffffff;" parent="1" vertex="1">
          <mxGeometry x="1350" y="106" width="1" height="1" as="geometry" />
        </mxCell>
        <mxCell id="HUTEtO8FgiCn7cgwGOjO-121" style="edgeStyle=none;curved=1;rounded=0;orthogonalLoop=1;jettySize=auto;html=1;entryX=0;entryY=0.5;entryDx=0;entryDy=0;fontSize=12;startSize=8;endSize=8;strokeWidth=1;fillColor=#1ba1e2;strokeColor=#006EAF;" parent="1" source="HUTEtO8FgiCn7cgwGOjO-122" target="HUTEtO8FgiCn7cgwGOjO-129" edge="1">
          <mxGeometry relative="1" as="geometry" />
        </mxCell>
        <mxCell id="HUTEtO8FgiCn7cgwGOjO-122" value="" style="ellipse;whiteSpace=wrap;html=1;aspect=fixed;fillColor=#1ba1e2;strokeColor=#006EAF;strokeWidth=1;fontColor=#ffffff;" parent="1" vertex="1">
          <mxGeometry x="1316" y="115" width="20" height="20" as="geometry" />
        </mxCell>
        <mxCell id="HUTEtO8FgiCn7cgwGOjO-123" style="edgeStyle=none;curved=1;rounded=0;orthogonalLoop=1;jettySize=auto;html=1;entryX=0.5;entryY=1;entryDx=0;entryDy=0;fontSize=12;startSize=8;endSize=8;strokeWidth=1;fillColor=#1ba1e2;strokeColor=#006EAF;" parent="1" source="HUTEtO8FgiCn7cgwGOjO-124" target="HUTEtO8FgiCn7cgwGOjO-129" edge="1">
          <mxGeometry relative="1" as="geometry" />
        </mxCell>
        <mxCell id="HUTEtO8FgiCn7cgwGOjO-124" value="" style="ellipse;whiteSpace=wrap;html=1;aspect=fixed;fillColor=#1ba1e2;strokeColor=#006EAF;strokeWidth=1;fontColor=#ffffff;" parent="1" vertex="1">
          <mxGeometry x="1357" y="178" width="17" height="17" as="geometry" />
        </mxCell>
        <mxCell id="HUTEtO8FgiCn7cgwGOjO-125" style="edgeStyle=none;curved=1;rounded=0;orthogonalLoop=1;jettySize=auto;html=1;entryX=1;entryY=1;entryDx=0;entryDy=0;fontSize=12;startSize=8;endSize=8;strokeWidth=1;fillColor=#1ba1e2;strokeColor=#006EAF;" parent="1" source="HUTEtO8FgiCn7cgwGOjO-126" target="HUTEtO8FgiCn7cgwGOjO-129" edge="1">
          <mxGeometry relative="1" as="geometry" />
        </mxCell>
        <mxCell id="HUTEtO8FgiCn7cgwGOjO-126" value="" style="ellipse;whiteSpace=wrap;html=1;aspect=fixed;fillColor=#1ba1e2;strokeColor=#006EAF;strokeWidth=1;fontColor=#ffffff;" parent="1" vertex="1">
          <mxGeometry x="1389" y="153" width="19" height="19" as="geometry" />
        </mxCell>
        <mxCell id="HUTEtO8FgiCn7cgwGOjO-127" style="edgeStyle=none;curved=1;rounded=0;orthogonalLoop=1;jettySize=auto;html=1;entryX=1;entryY=0;entryDx=0;entryDy=0;fontSize=12;startSize=8;endSize=8;strokeWidth=1;fillColor=#1ba1e2;strokeColor=#006EAF;" parent="1" source="HUTEtO8FgiCn7cgwGOjO-128" target="HUTEtO8FgiCn7cgwGOjO-129" edge="1">
          <mxGeometry relative="1" as="geometry" />
        </mxCell>
        <mxCell id="HUTEtO8FgiCn7cgwGOjO-128" value="" style="ellipse;whiteSpace=wrap;html=1;aspect=fixed;fillColor=#1ba1e2;strokeColor=#006EAF;strokeWidth=1;fontColor=#ffffff;" parent="1" vertex="1">
          <mxGeometry x="1381" y="107" width="17" height="17" as="geometry" />
        </mxCell>
        <mxCell id="HUTEtO8FgiCn7cgwGOjO-129" value="" style="ellipse;whiteSpace=wrap;html=1;aspect=fixed;fillColor=#1ba1e2;strokeColor=#006EAF;strokeWidth=1;fontColor=#ffffff;" parent="1" vertex="1">
          <mxGeometry x="1350" y="133" width="24" height="24" as="geometry" />
        </mxCell>
        <mxCell id="HUTEtO8FgiCn7cgwGOjO-130" style="edgeStyle=none;curved=1;rounded=0;orthogonalLoop=1;jettySize=auto;html=1;entryX=0.5;entryY=0;entryDx=0;entryDy=0;fontSize=12;startSize=8;endSize=8;fillColor=#1ba1e2;strokeColor=#006EAF;" parent="1" source="HUTEtO8FgiCn7cgwGOjO-131" target="HUTEtO8FgiCn7cgwGOjO-129" edge="1">
          <mxGeometry relative="1" as="geometry" />
        </mxCell>
        <mxCell id="HUTEtO8FgiCn7cgwGOjO-131" value="" style="ellipse;whiteSpace=wrap;html=1;aspect=fixed;fillColor=#1ba1e2;strokeColor=#006EAF;strokeWidth=1;shadow=0;fontColor=#ffffff;" parent="1" vertex="1">
          <mxGeometry x="1348" y="94" width="19" height="19" as="geometry" />
        </mxCell>
        <mxCell id="HUTEtO8FgiCn7cgwGOjO-132" value="" style="rounded=1;whiteSpace=wrap;html=1;fillColor=#cce5ff;strokeColor=#36393d;" parent="1" vertex="1">
          <mxGeometry x="1210" y="317.13" width="202" height="115" as="geometry" />
        </mxCell>
        <mxCell id="HUTEtO8FgiCn7cgwGOjO-133" style="edgeStyle=none;curved=1;rounded=0;orthogonalLoop=1;jettySize=auto;html=1;entryX=0;entryY=1;entryDx=0;entryDy=0;fontSize=12;startSize=8;endSize=8;strokeWidth=1;fillColor=#e1d5e7;strokeColor=#9673a6;" parent="1" source="HUTEtO8FgiCn7cgwGOjO-134" target="HUTEtO8FgiCn7cgwGOjO-145" edge="1">
          <mxGeometry relative="1" as="geometry" />
        </mxCell>
        <mxCell id="HUTEtO8FgiCn7cgwGOjO-134" value="" style="ellipse;whiteSpace=wrap;html=1;aspect=fixed;fillColor=#e1d5e7;strokeColor=#9673a6;strokeWidth=1;" parent="1" vertex="1">
          <mxGeometry x="1215" y="389.13" width="17" height="17" as="geometry" />
        </mxCell>
        <mxCell id="HUTEtO8FgiCn7cgwGOjO-135" style="edgeStyle=none;curved=1;rounded=0;orthogonalLoop=1;jettySize=auto;html=1;entryX=0.5;entryY=0;entryDx=0;entryDy=0;fontSize=12;startSize=8;endSize=8;strokeWidth=1;fillColor=#e1d5e7;strokeColor=#9673a6;" parent="1" source="HUTEtO8FgiCn7cgwGOjO-136" target="HUTEtO8FgiCn7cgwGOjO-145" edge="1">
          <mxGeometry relative="1" as="geometry" />
        </mxCell>
        <mxCell id="HUTEtO8FgiCn7cgwGOjO-136" value="" style="ellipse;whiteSpace=wrap;html=1;aspect=fixed;fillColor=#e1d5e7;strokeColor=#9673a6;strokeWidth=1;" parent="1" vertex="1">
          <mxGeometry x="1246" y="327.13" width="19" height="19" as="geometry" />
        </mxCell>
        <mxCell id="HUTEtO8FgiCn7cgwGOjO-137" style="edgeStyle=none;curved=1;rounded=0;orthogonalLoop=1;jettySize=auto;html=1;entryX=0;entryY=0.5;entryDx=0;entryDy=0;fontSize=12;startSize=8;endSize=8;strokeWidth=1;fillColor=#e1d5e7;strokeColor=#9673a6;" parent="1" source="HUTEtO8FgiCn7cgwGOjO-138" target="HUTEtO8FgiCn7cgwGOjO-145" edge="1">
          <mxGeometry relative="1" as="geometry" />
        </mxCell>
        <mxCell id="HUTEtO8FgiCn7cgwGOjO-138" value="" style="ellipse;whiteSpace=wrap;html=1;aspect=fixed;fillColor=#e1d5e7;strokeColor=#9673a6;strokeWidth=1;" parent="1" vertex="1">
          <mxGeometry x="1218" y="349.13" width="17" height="17" as="geometry" />
        </mxCell>
        <mxCell id="HUTEtO8FgiCn7cgwGOjO-139" style="edgeStyle=none;curved=1;rounded=0;orthogonalLoop=1;jettySize=auto;html=1;entryX=0.5;entryY=1;entryDx=0;entryDy=0;fontSize=12;startSize=8;endSize=8;strokeWidth=1;fillColor=#e1d5e7;strokeColor=#9673a6;" parent="1" source="HUTEtO8FgiCn7cgwGOjO-140" target="HUTEtO8FgiCn7cgwGOjO-145" edge="1">
          <mxGeometry relative="1" as="geometry" />
        </mxCell>
        <mxCell id="HUTEtO8FgiCn7cgwGOjO-140" value="" style="ellipse;whiteSpace=wrap;html=1;aspect=fixed;fillColor=#e1d5e7;strokeColor=#9673a6;strokeWidth=1;" parent="1" vertex="1">
          <mxGeometry x="1249" y="407.13" width="17" height="17" as="geometry" />
        </mxCell>
        <mxCell id="HUTEtO8FgiCn7cgwGOjO-141" style="edgeStyle=none;curved=1;rounded=0;orthogonalLoop=1;jettySize=auto;html=1;entryX=1;entryY=1;entryDx=0;entryDy=0;fontSize=12;startSize=8;endSize=8;strokeWidth=1;fillColor=#e1d5e7;strokeColor=#9673a6;" parent="1" source="HUTEtO8FgiCn7cgwGOjO-142" target="HUTEtO8FgiCn7cgwGOjO-145" edge="1">
          <mxGeometry relative="1" as="geometry" />
        </mxCell>
        <mxCell id="HUTEtO8FgiCn7cgwGOjO-142" value="" style="ellipse;whiteSpace=wrap;html=1;aspect=fixed;fillColor=#e1d5e7;strokeColor=#9673a6;strokeWidth=1;" parent="1" vertex="1">
          <mxGeometry x="1275" y="380.13" width="17" height="17" as="geometry" />
        </mxCell>
        <mxCell id="HUTEtO8FgiCn7cgwGOjO-143" style="edgeStyle=none;curved=1;rounded=0;orthogonalLoop=1;jettySize=auto;html=1;entryX=1;entryY=0;entryDx=0;entryDy=0;fontSize=12;startSize=8;endSize=8;strokeWidth=1;fillColor=#e1d5e7;strokeColor=#9673a6;" parent="1" source="HUTEtO8FgiCn7cgwGOjO-144" target="HUTEtO8FgiCn7cgwGOjO-145" edge="1">
          <mxGeometry relative="1" as="geometry" />
        </mxCell>
        <mxCell id="HUTEtO8FgiCn7cgwGOjO-144" value="" style="ellipse;whiteSpace=wrap;html=1;aspect=fixed;fillColor=#e1d5e7;strokeColor=#9673a6;strokeWidth=1;" parent="1" vertex="1">
          <mxGeometry x="1278" y="343.13" width="17" height="17" as="geometry" />
        </mxCell>
        <mxCell id="HUTEtO8FgiCn7cgwGOjO-145" value="" style="ellipse;whiteSpace=wrap;html=1;aspect=fixed;fillColor=#e1d5e7;strokeColor=#9673a6;strokeWidth=1;" parent="1" vertex="1">
          <mxGeometry x="1242" y="362.13" width="25" height="25" as="geometry" />
        </mxCell>
        <mxCell id="HUTEtO8FgiCn7cgwGOjO-146" style="edgeStyle=none;curved=1;rounded=0;orthogonalLoop=1;jettySize=auto;html=1;entryX=0;entryY=1;entryDx=0;entryDy=0;fontSize=12;startSize=8;endSize=8;strokeWidth=1;fillColor=#e1d5e7;strokeColor=#9673a6;" parent="1" source="HUTEtO8FgiCn7cgwGOjO-147" target="HUTEtO8FgiCn7cgwGOjO-157" edge="1">
          <mxGeometry relative="1" as="geometry" />
        </mxCell>
        <mxCell id="HUTEtO8FgiCn7cgwGOjO-147" value="" style="ellipse;whiteSpace=wrap;html=1;aspect=fixed;fillColor=#e1d5e7;strokeColor=#9673a6;strokeWidth=1;" parent="1" vertex="1">
          <mxGeometry x="1319" y="405.13" width="17" height="17" as="geometry" />
        </mxCell>
        <mxCell id="HUTEtO8FgiCn7cgwGOjO-148" value="" style="ellipse;whiteSpace=wrap;html=1;aspect=fixed;fillColor=#e1d5e7;strokeColor=#9673a6;strokeWidth=1;" parent="1" vertex="1">
          <mxGeometry x="1348" y="340.13" width="1" height="1" as="geometry" />
        </mxCell>
        <mxCell id="HUTEtO8FgiCn7cgwGOjO-149" style="edgeStyle=none;curved=1;rounded=0;orthogonalLoop=1;jettySize=auto;html=1;entryX=0;entryY=0.5;entryDx=0;entryDy=0;fontSize=12;startSize=8;endSize=8;strokeWidth=1;fillColor=#e1d5e7;strokeColor=#9673a6;" parent="1" source="HUTEtO8FgiCn7cgwGOjO-150" target="HUTEtO8FgiCn7cgwGOjO-157" edge="1">
          <mxGeometry relative="1" as="geometry" />
        </mxCell>
        <mxCell id="HUTEtO8FgiCn7cgwGOjO-150" value="" style="ellipse;whiteSpace=wrap;html=1;aspect=fixed;fillColor=#e1d5e7;strokeColor=#9673a6;strokeWidth=1;" parent="1" vertex="1">
          <mxGeometry x="1315" y="349.13" width="19" height="19" as="geometry" />
        </mxCell>
        <mxCell id="HUTEtO8FgiCn7cgwGOjO-151" style="edgeStyle=none;curved=1;rounded=0;orthogonalLoop=1;jettySize=auto;html=1;entryX=0.5;entryY=1;entryDx=0;entryDy=0;fontSize=12;startSize=8;endSize=8;strokeWidth=1;fillColor=#e1d5e7;strokeColor=#9673a6;" parent="1" source="HUTEtO8FgiCn7cgwGOjO-152" target="HUTEtO8FgiCn7cgwGOjO-157" edge="1">
          <mxGeometry relative="1" as="geometry" />
        </mxCell>
        <mxCell id="HUTEtO8FgiCn7cgwGOjO-152" value="" style="ellipse;whiteSpace=wrap;html=1;aspect=fixed;fillColor=#e1d5e7;strokeColor=#9673a6;strokeWidth=1;" parent="1" vertex="1">
          <mxGeometry x="1355" y="412.13" width="17" height="17" as="geometry" />
        </mxCell>
        <mxCell id="HUTEtO8FgiCn7cgwGOjO-153" style="edgeStyle=none;curved=1;rounded=0;orthogonalLoop=1;jettySize=auto;html=1;entryX=1;entryY=1;entryDx=0;entryDy=0;fontSize=12;startSize=8;endSize=8;strokeWidth=1;fillColor=#e1d5e7;strokeColor=#9673a6;" parent="1" source="HUTEtO8FgiCn7cgwGOjO-154" target="HUTEtO8FgiCn7cgwGOjO-157" edge="1">
          <mxGeometry relative="1" as="geometry" />
        </mxCell>
        <mxCell id="HUTEtO8FgiCn7cgwGOjO-154" value="" style="ellipse;whiteSpace=wrap;html=1;aspect=fixed;fillColor=#e1d5e7;strokeColor=#9673a6;strokeWidth=1;" parent="1" vertex="1">
          <mxGeometry x="1387" y="387.13" width="19" height="19" as="geometry" />
        </mxCell>
        <mxCell id="HUTEtO8FgiCn7cgwGOjO-155" style="edgeStyle=none;curved=1;rounded=0;orthogonalLoop=1;jettySize=auto;html=1;entryX=1;entryY=0;entryDx=0;entryDy=0;fontSize=12;startSize=8;endSize=8;strokeWidth=1;fillColor=#e1d5e7;strokeColor=#9673a6;" parent="1" source="HUTEtO8FgiCn7cgwGOjO-156" target="HUTEtO8FgiCn7cgwGOjO-157" edge="1">
          <mxGeometry relative="1" as="geometry" />
        </mxCell>
        <mxCell id="HUTEtO8FgiCn7cgwGOjO-156" value="" style="ellipse;whiteSpace=wrap;html=1;aspect=fixed;fillColor=#e1d5e7;strokeColor=#9673a6;strokeWidth=1;" parent="1" vertex="1">
          <mxGeometry x="1379" y="341.13" width="17" height="17" as="geometry" />
        </mxCell>
        <mxCell id="HUTEtO8FgiCn7cgwGOjO-157" value="" style="ellipse;whiteSpace=wrap;html=1;aspect=fixed;fillColor=#e1d5e7;strokeColor=#9673a6;strokeWidth=1;" parent="1" vertex="1">
          <mxGeometry x="1348" y="367.13" width="24" height="24" as="geometry" />
        </mxCell>
        <mxCell id="HUTEtO8FgiCn7cgwGOjO-158" style="edgeStyle=none;curved=1;rounded=0;orthogonalLoop=1;jettySize=auto;html=1;entryX=0.5;entryY=0;entryDx=0;entryDy=0;fontSize=12;startSize=8;endSize=8;fillColor=#e1d5e7;strokeColor=#9673a6;" parent="1" source="HUTEtO8FgiCn7cgwGOjO-159" target="HUTEtO8FgiCn7cgwGOjO-157" edge="1">
          <mxGeometry relative="1" as="geometry" />
        </mxCell>
        <mxCell id="HUTEtO8FgiCn7cgwGOjO-159" value="" style="ellipse;whiteSpace=wrap;html=1;aspect=fixed;fillColor=#e1d5e7;strokeColor=#9673a6;strokeWidth=1;shadow=0;" parent="1" vertex="1">
          <mxGeometry x="1346" y="328.13" width="19" height="19" as="geometry" />
        </mxCell>
        <mxCell id="8RnMBRZzP_LefB40drwE-22" style="edgeStyle=orthogonalEdgeStyle;rounded=0;orthogonalLoop=1;jettySize=auto;html=1;entryX=0;entryY=0.5;entryDx=0;entryDy=0;" parent="1" source="8RnMBRZzP_LefB40drwE-1" target="HUTEtO8FgiCn7cgwGOjO-104" edge="1">
          <mxGeometry relative="1" as="geometry" />
        </mxCell>
        <mxCell id="8RnMBRZzP_LefB40drwE-1" value="" style="rounded=1;whiteSpace=wrap;html=1;fillColor=#cce5ff;strokeColor=#36393d;" parent="1" vertex="1">
          <mxGeometry x="930" y="109" width="220" height="77" as="geometry" />
        </mxCell>
        <mxCell id="8RnMBRZzP_LefB40drwE-2" value="" style="shape=table;startSize=0;container=1;collapsible=0;childLayout=tableLayout;fontSize=16;fillColor=#1ba1e2;strokeColor=#006EAF;fontColor=#ffffff;" parent="1" vertex="1">
          <mxGeometry x="952" y="131.00000000000006" width="77" height="36.69" as="geometry" />
        </mxCell>
        <mxCell id="8RnMBRZzP_LefB40drwE-3" value="" style="shape=tableRow;horizontal=0;startSize=0;swimlaneHead=0;swimlaneBody=0;strokeColor=inherit;top=0;left=0;bottom=0;right=0;collapsible=0;dropTarget=0;fillColor=none;points=[[0,0.5],[1,0.5]];portConstraint=eastwest;fontSize=16;" parent="8RnMBRZzP_LefB40drwE-2" vertex="1">
          <mxGeometry width="77" height="37" as="geometry" />
        </mxCell>
        <mxCell id="8RnMBRZzP_LefB40drwE-4" value="f1" style="shape=partialRectangle;html=1;whiteSpace=wrap;connectable=0;strokeColor=inherit;overflow=hidden;fillColor=none;top=0;left=0;bottom=0;right=0;pointerEvents=1;fontSize=16;" parent="8RnMBRZzP_LefB40drwE-3" vertex="1">
          <mxGeometry width="25" height="37" as="geometry">
            <mxRectangle width="25" height="37" as="alternateBounds" />
          </mxGeometry>
        </mxCell>
        <mxCell id="8RnMBRZzP_LefB40drwE-5" value="f4" style="shape=partialRectangle;html=1;whiteSpace=wrap;connectable=0;strokeColor=inherit;overflow=hidden;fillColor=none;top=0;left=0;bottom=0;right=0;pointerEvents=1;fontSize=16;" parent="8RnMBRZzP_LefB40drwE-3" vertex="1">
          <mxGeometry x="25" width="27" height="37" as="geometry">
            <mxRectangle width="27" height="37" as="alternateBounds" />
          </mxGeometry>
        </mxCell>
        <mxCell id="8RnMBRZzP_LefB40drwE-6" value="f7" style="shape=partialRectangle;html=1;whiteSpace=wrap;connectable=0;strokeColor=inherit;overflow=hidden;fillColor=none;top=0;left=0;bottom=0;right=0;pointerEvents=1;fontSize=16;" parent="8RnMBRZzP_LefB40drwE-3" vertex="1">
          <mxGeometry x="52" width="25" height="37" as="geometry">
            <mxRectangle width="25" height="37" as="alternateBounds" />
          </mxGeometry>
        </mxCell>
        <mxCell id="8RnMBRZzP_LefB40drwE-7" value="" style="shape=table;startSize=0;container=1;collapsible=0;childLayout=tableLayout;fontSize=16;fillColor=#1ba1e2;strokeColor=#006EAF;fontColor=#ffffff;" parent="1" vertex="1">
          <mxGeometry x="1029" y="131.00000000000006" width="110" height="36.69" as="geometry" />
        </mxCell>
        <mxCell id="8RnMBRZzP_LefB40drwE-8" value="" style="shape=tableRow;horizontal=0;startSize=0;swimlaneHead=0;swimlaneBody=0;strokeColor=inherit;top=0;left=0;bottom=0;right=0;collapsible=0;dropTarget=0;fillColor=none;points=[[0,0.5],[1,0.5]];portConstraint=eastwest;fontSize=16;" parent="8RnMBRZzP_LefB40drwE-7" vertex="1">
          <mxGeometry width="110" height="37" as="geometry" />
        </mxCell>
        <mxCell id="8RnMBRZzP_LefB40drwE-9" value="...." style="shape=partialRectangle;html=1;whiteSpace=wrap;connectable=0;strokeColor=inherit;overflow=hidden;fillColor=none;top=0;left=0;bottom=0;right=0;pointerEvents=1;fontSize=16;" parent="8RnMBRZzP_LefB40drwE-8" vertex="1">
          <mxGeometry width="36" height="37" as="geometry">
            <mxRectangle width="36" height="37" as="alternateBounds" />
          </mxGeometry>
        </mxCell>
        <mxCell id="8RnMBRZzP_LefB40drwE-10" value="fn-2" style="shape=partialRectangle;html=1;whiteSpace=wrap;connectable=0;strokeColor=inherit;overflow=hidden;fillColor=none;top=0;left=0;bottom=0;right=0;pointerEvents=1;fontSize=16;" parent="8RnMBRZzP_LefB40drwE-8" vertex="1">
          <mxGeometry x="36" width="37" height="37" as="geometry">
            <mxRectangle width="37" height="37" as="alternateBounds" />
          </mxGeometry>
        </mxCell>
        <mxCell id="8RnMBRZzP_LefB40drwE-11" value="fn" style="shape=partialRectangle;html=1;whiteSpace=wrap;connectable=0;strokeColor=inherit;overflow=hidden;fillColor=none;top=0;left=0;bottom=0;right=0;pointerEvents=1;fontSize=16;" parent="8RnMBRZzP_LefB40drwE-8" vertex="1">
          <mxGeometry x="73" width="37" height="37" as="geometry">
            <mxRectangle width="37" height="37" as="alternateBounds" />
          </mxGeometry>
        </mxCell>
        <mxCell id="8RnMBRZzP_LefB40drwE-12" value="&lt;div&gt;&lt;b style=&quot;&quot;&gt;&lt;font style=&quot;font-size: 23px;&quot;&gt;Feature&lt;/font&gt;&lt;/b&gt;&lt;/div&gt;&lt;div&gt;&lt;font style=&quot;font-size: 23px;&quot;&gt;&lt;b style=&quot;&quot;&gt;Selection&amp;nbsp;&lt;/b&gt;&lt;/font&gt;&lt;div&gt;&lt;font style=&quot;font-size: 23px;&quot;&gt;&lt;b style=&quot;&quot;&gt;Module&lt;/b&gt;&lt;/font&gt;&lt;/div&gt;&lt;/div&gt;" style="text;html=1;align=center;verticalAlign=middle;whiteSpace=wrap;rounded=0;" parent="1" vertex="1">
          <mxGeometry x="984" y="226.13" width="104" height="33" as="geometry" />
        </mxCell>
        <mxCell id="8RnMBRZzP_LefB40drwE-44" style="edgeStyle=orthogonalEdgeStyle;rounded=0;orthogonalLoop=1;jettySize=auto;html=1;entryX=0;entryY=0.5;entryDx=0;entryDy=0;" parent="1" source="8RnMBRZzP_LefB40drwE-27" target="HUTEtO8FgiCn7cgwGOjO-132" edge="1">
          <mxGeometry relative="1" as="geometry" />
        </mxCell>
        <mxCell id="8RnMBRZzP_LefB40drwE-27" value="" style="rounded=1;whiteSpace=wrap;html=1;fillColor=#cce5ff;strokeColor=#36393d;" parent="1" vertex="1">
          <mxGeometry x="930" y="328.13" width="212" height="91" as="geometry" />
        </mxCell>
        <mxCell id="8RnMBRZzP_LefB40drwE-28" value="" style="shape=table;startSize=0;container=1;collapsible=0;childLayout=tableLayout;fontSize=16;fillColor=#e1d5e7;strokeColor=#9673a6;" parent="1" vertex="1">
          <mxGeometry x="938" y="355.13" width="77" height="36.69" as="geometry" />
        </mxCell>
        <mxCell id="8RnMBRZzP_LefB40drwE-29" value="" style="shape=tableRow;horizontal=0;startSize=0;swimlaneHead=0;swimlaneBody=0;strokeColor=inherit;top=0;left=0;bottom=0;right=0;collapsible=0;dropTarget=0;fillColor=none;points=[[0,0.5],[1,0.5]];portConstraint=eastwest;fontSize=16;" parent="8RnMBRZzP_LefB40drwE-28" vertex="1">
          <mxGeometry width="77" height="37" as="geometry" />
        </mxCell>
        <mxCell id="8RnMBRZzP_LefB40drwE-30" value="f1" style="shape=partialRectangle;html=1;whiteSpace=wrap;connectable=0;strokeColor=inherit;overflow=hidden;fillColor=none;top=0;left=0;bottom=0;right=0;pointerEvents=1;fontSize=16;" parent="8RnMBRZzP_LefB40drwE-29" vertex="1">
          <mxGeometry width="25" height="37" as="geometry">
            <mxRectangle width="25" height="37" as="alternateBounds" />
          </mxGeometry>
        </mxCell>
        <mxCell id="8RnMBRZzP_LefB40drwE-31" value="f2" style="shape=partialRectangle;html=1;whiteSpace=wrap;connectable=0;strokeColor=inherit;overflow=hidden;fillColor=none;top=0;left=0;bottom=0;right=0;pointerEvents=1;fontSize=16;" parent="8RnMBRZzP_LefB40drwE-29" vertex="1">
          <mxGeometry x="25" width="27" height="37" as="geometry">
            <mxRectangle width="27" height="37" as="alternateBounds" />
          </mxGeometry>
        </mxCell>
        <mxCell id="8RnMBRZzP_LefB40drwE-32" value="f3" style="shape=partialRectangle;html=1;whiteSpace=wrap;connectable=0;strokeColor=inherit;overflow=hidden;fillColor=none;top=0;left=0;bottom=0;right=0;pointerEvents=1;fontSize=16;" parent="8RnMBRZzP_LefB40drwE-29" vertex="1">
          <mxGeometry x="52" width="25" height="37" as="geometry">
            <mxRectangle width="25" height="37" as="alternateBounds" />
          </mxGeometry>
        </mxCell>
        <mxCell id="8RnMBRZzP_LefB40drwE-33" value="" style="shape=table;startSize=0;container=1;collapsible=0;childLayout=tableLayout;fontSize=16;fillColor=#e1d5e7;strokeColor=#9673a6;" parent="1" vertex="1">
          <mxGeometry x="1015" y="355.13" width="110" height="36.69" as="geometry" />
        </mxCell>
        <mxCell id="8RnMBRZzP_LefB40drwE-34" value="" style="shape=tableRow;horizontal=0;startSize=0;swimlaneHead=0;swimlaneBody=0;strokeColor=inherit;top=0;left=0;bottom=0;right=0;collapsible=0;dropTarget=0;fillColor=none;points=[[0,0.5],[1,0.5]];portConstraint=eastwest;fontSize=16;" parent="8RnMBRZzP_LefB40drwE-33" vertex="1">
          <mxGeometry width="110" height="37" as="geometry" />
        </mxCell>
        <mxCell id="8RnMBRZzP_LefB40drwE-35" value="...." style="shape=partialRectangle;html=1;whiteSpace=wrap;connectable=0;strokeColor=inherit;overflow=hidden;fillColor=none;top=0;left=0;bottom=0;right=0;pointerEvents=1;fontSize=16;" parent="8RnMBRZzP_LefB40drwE-34" vertex="1">
          <mxGeometry width="36" height="37" as="geometry">
            <mxRectangle width="36" height="37" as="alternateBounds" />
          </mxGeometry>
        </mxCell>
        <mxCell id="8RnMBRZzP_LefB40drwE-36" value="fn-1" style="shape=partialRectangle;html=1;whiteSpace=wrap;connectable=0;strokeColor=inherit;overflow=hidden;fillColor=none;top=0;left=0;bottom=0;right=0;pointerEvents=1;fontSize=16;" parent="8RnMBRZzP_LefB40drwE-34" vertex="1">
          <mxGeometry x="36" width="37" height="37" as="geometry">
            <mxRectangle width="37" height="37" as="alternateBounds" />
          </mxGeometry>
        </mxCell>
        <mxCell id="8RnMBRZzP_LefB40drwE-37" value="fn" style="shape=partialRectangle;html=1;whiteSpace=wrap;connectable=0;strokeColor=inherit;overflow=hidden;fillColor=none;top=0;left=0;bottom=0;right=0;pointerEvents=1;fontSize=16;" parent="8RnMBRZzP_LefB40drwE-34" vertex="1">
          <mxGeometry x="73" width="37" height="37" as="geometry">
            <mxRectangle width="37" height="37" as="alternateBounds" />
          </mxGeometry>
        </mxCell>
        <mxCell id="8RnMBRZzP_LefB40drwE-38" value="&lt;b style=&quot;&quot;&gt;&lt;font style=&quot;font-size: 23px;&quot;&gt;N-gram generation&lt;/font&gt;&lt;/b&gt;&lt;div&gt;&lt;b style=&quot;&quot;&gt;&lt;font style=&quot;font-size: 23px;&quot;&gt;Module&lt;/font&gt;&lt;/b&gt;&lt;/div&gt;" style="text;html=1;align=center;verticalAlign=middle;whiteSpace=wrap;rounded=0;" parent="1" vertex="1">
          <mxGeometry x="941" y="464.49" width="205" height="22.35" as="geometry" />
        </mxCell>
        <mxCell id="8RnMBRZzP_LefB40drwE-47" style="edgeStyle=orthogonalEdgeStyle;rounded=0;orthogonalLoop=1;jettySize=auto;html=1;exitX=0.5;exitY=1;exitDx=0;exitDy=0;" parent="1" source="HUTEtO8FgiCn7cgwGOjO-45" target="HUTEtO8FgiCn7cgwGOjO-45" edge="1">
          <mxGeometry relative="1" as="geometry" />
        </mxCell>
      </root>
    </mxGraphModel>
  </diagram>
</mxfile>
